<?xml version="1.0" encoding="UTF-8"?>
<svg id="Layer_2" data-name="Layer 2" xmlns="http://www.w3.org/2000/svg" viewBox="0 0 106.89 128.28">
  <g id="Layer_1-2" data-name="Layer 1">
    <g id="_2BZTZi" data-name="2BZTZi">
      <g>
        <path d="M103.37,122.77c-3.75,4.19-9.21,6.04-14.74,5.34-3.99-.51-7.39-2.4-10.04-5.47l-32.25-37.4c-9.33-10.81-10.18-30.28-1.93-41.85L70.9,6.27c1.41-1.98,3.28-3.37,5.41-4.46,8.3-4.25,19.5-.74,22.7,8.29,1.62,4.58,1.06,9.55-1.68,13.38l-26.46,36.95c-1.35,1.88-1.68,4.35-.06,6.23l31.86,36.93c5.34,5.28,5.67,13.39.71,19.18Z" style="fill: #c6cbe7;"/>
        <path d="M23.98,126.22c-6.12,3.41-13.73,2.5-18.83-2.07C1.85,121.19,0,117.21,0,112.73V15.52C.01,8.36,4.9,2.23,11.77.53c3.11-.77,6.16-.72,9.25.21,6.38,1.93,11,7.75,11,14.57l.02,97.75c0,5.52-3.22,10.45-8.05,13.14Z" style="fill: #5267b0;"/>
      </g>
    </g>
  </g>
</svg>